<svg width="46" height="46" viewBox="0 0 46 46" fill="none" xmlns="http://www.w3.org/2000/svg">
<g id="Group 378">
<circle id="Ellipse 40" cx="23" cy="23" r="23" fill="#1BA8F1" fill-opacity="0.15"/>
<g id="&#228;&#188;&#129;&#228;&#184;&#154;&#229;&#186;&#147; 1">
<g id="&#233;&#161;&#181;&#233;&#157;&#162;1">
<g id="iPhone-8&#229;&#164;&#141;&#229;&#136;&#182;-21">
<g id="&#231;&#188;&#150;&#231;&#187;&#132;-17">
<g id="&#231;&#188;&#150;&#231;&#187;&#132;-10&#229;&#164;&#141;&#229;&#136;&#182;">
<g id="&#231;&#188;&#150;&#231;&#187;&#132;-8">
<g id="&#232;&#183;&#175;&#229;&#190;&#132;-9">
<mask id="mask0_275_4231" style="mask-type:alpha" maskUnits="userSpaceOnUse" x="22" y="15" width="12" height="16">
<g id="mask-2">
<path id="Vector" d="M33.1206 18.7318L23.7692 16.013C23.219 15.853 22.6441 16.1721 22.4851 16.7258C22.4581 16.8199 22.4443 16.9174 22.4443 17.0154V30.9185H33.8698V19.7343C33.8698 19.2695 33.5644 18.8608 33.1206 18.7318Z" fill="white"/>
</g>
</mask>
<g mask="url(#mask0_275_4231)">
<path id="&#232;&#146;&#153;&#231;&#137;&#136;" d="M33.1206 18.7318L23.7692 16.013C23.219 15.853 22.6441 16.1721 22.4851 16.7258C22.4581 16.8199 22.4443 16.9174 22.4443 17.0154V30.9185H33.8698V19.7343C33.8698 19.2695 33.5644 18.8608 33.1206 18.7318Z" fill="url(#paint0_linear_275_4231)" fill-opacity="0.5"/>
</g>
</g>
<path id="Union" fill-rule="evenodd" clip-rule="evenodd" d="M26.272 9.36061L13.8758 12.7548C13.4244 12.8784 13.1111 13.2909 13.1111 13.7617V30.3919H11.2193C10.6678 30.3919 10.2207 30.8591 10.2207 31.4354C10.2207 32.0117 10.6678 32.4789 11.2193 32.4789H36.185C36.7366 32.4789 37.1837 32.0117 37.1837 31.4354C37.1837 30.8591 36.7366 30.3919 36.185 30.3919H27.5813V10.3675C27.5813 10.2749 27.5691 10.1828 27.5449 10.0935C27.3946 9.5374 26.8246 9.20929 26.272 9.36061Z" fill="url(#paint1_linear_275_4231)"/>
<path id="&#231;&#159;&#169;&#229;&#189;&#162;" d="M23.4814 17.3521H17.2592C16.6865 17.3521 16.2222 17.8192 16.2222 18.3955C16.2222 18.9718 16.6865 19.439 17.2592 19.439H23.4814C24.0542 19.439 24.5185 18.9718 24.5185 18.3955C24.5185 17.8192 24.0542 17.3521 23.4814 17.3521Z" fill="#F0F3FF"/>
<path id="&#231;&#159;&#169;&#229;&#189;&#162;&#229;&#164;&#141;&#229;&#136;&#182;-3" d="M23.4814 21.5195H17.2592C16.6865 21.5195 16.2222 21.9867 16.2222 22.563C16.2222 23.1393 16.6865 23.6065 17.2592 23.6065H23.4814C24.0542 23.6065 24.5185 23.1393 24.5185 22.563C24.5185 21.9867 24.0542 21.5195 23.4814 21.5195Z" fill="#F0F3FF"/>
</g>
</g>
</g>
</g>
</g>
</g>
</g>
<defs>
<linearGradient id="paint0_linear_275_4231" x1="15.853" y1="25.4396" x2="32.5354" y2="40.5022" gradientUnits="userSpaceOnUse">
<stop stop-color="#5CC7FF"/>
<stop offset="0.254042" stop-color="#33A6EC"/>
<stop offset="1" stop-color="#118BDD"/>
</linearGradient>
<linearGradient id="paint1_linear_275_4231" x1="-5.33427" y1="23.9912" x2="19.3785" y2="57.9815" gradientUnits="userSpaceOnUse">
<stop stop-color="#5CC7FF"/>
<stop offset="0.254042" stop-color="#33A6EC"/>
<stop offset="1" stop-color="#118BDD"/>
</linearGradient>
</defs>
</svg>
