<?xml version="1.0" encoding="UTF-8"?>
<svg width="14px" height="14px" viewBox="0 0 14 14" version="1.1" xmlns="http://www.w3.org/2000/svg" xmlns:xlink="http://www.w3.org/1999/xlink">
    <!-- Generator: Sketch 64 (93537) - https://sketch.com -->
    <title>编组 7</title>
    <desc>Created with Sketch.</desc>
    <defs>
        <linearGradient x1="11.5294994%" y1="7.45607319%" x2="123.306258%" y2="129.32764%" id="linearGradient-1">
            <stop stop-color="#5CC7FF" offset="0%"></stop>
            <stop stop-color="#33A6EC" offset="25.4042342%"></stop>
            <stop stop-color="#118BDD" offset="100%"></stop>
        </linearGradient>
    </defs>
    <g id="V1.9.0.0" stroke="none" stroke-width="1" fill="none" fill-rule="evenodd">
        <g id="icon" transform="translate(-105.000000, -70.000000)">
            <g id="编组-7" transform="translate(105.000000, 70.000000)">
                <circle id="椭圆形" fill="url(#linearGradient-1)" cx="7" cy="7" r="7"></circle>
                <g id="编组-4" transform="translate(3.000000, 3.000000)">
                    <circle id="椭圆形" stroke="#FFFFFF" cx="3" cy="5.2" r="2.5"></circle>
                    <line x1="5.00093107" y1="3.11191446" x2="6.80093107" y2="1.31191446" id="路径-7" stroke="#FFFFFF" stroke-linecap="round" stroke-linejoin="round"></line>
                    <path d="M5.20710678,0 L7.5,0 C7.77614237,-5.07265313e-17 8,0.223857625 8,0.5 L8,2.79289322 C8,3.06903559 7.77614237,3.29289322 7.5,3.29289322 C7.36739176,3.29289322 7.2402148,3.2402148 7.14644661,3.14644661 L4.85355339,0.853553391 C4.65829124,0.658291245 4.65829124,0.341708755 4.85355339,0.146446609 C4.94732158,0.0526784202 5.07449854,-1.97684866e-16 5.20710678,0 Z" id="路径-8" fill="#FFFFFF"></path>
                </g>
            </g>
        </g>
    </g>
</svg>