<svg xmlns="http://www.w3.org/2000/svg" width="14" height="14" viewBox="0 0 14 14"><defs><style>.a{fill:#fc5959;}.b{fill:#fff;}</style></defs><rect class="a" width="14" height="14" rx="2"/><g transform="translate(2.436 1.927)"><path class="b" d="M.453,9.529A.789.789,0,0,1,0,8.8c0-.241.053-.912,2.6-2.012A19.1,19.1,0,0,0,4.013,3.464C3.691,2.822,3,1.238,3.478.434A.855.855,0,0,1,4.308,0,.89.89,0,0,1,5,.352c.348.483.32,1.5-.133,3.006A8.132,8.132,0,0,0,6.53,5.5a9.07,9.07,0,0,1,1.686-.188c1.258.027,1.445.618,1.42.966,0,.912-.885.912-1.339.912a3.4,3.4,0,0,1-1.98-.8A19.015,19.015,0,0,0,3.131,7.409C2.3,8.886,1.524,9.637.856,9.637H.828A.7.7,0,0,1,.453,9.529Z" transform="translate(0 0)"/></g></svg>