<svg xmlns="http://www.w3.org/2000/svg" width="14" height="14" viewBox="0 0 14 14"><defs><style>.a{fill:#4991f2;}.b{fill:#fff;}</style></defs><g transform="translate(-0.001)"><rect class="a" width="14" height="14" rx="2" transform="translate(0.001)"/><path class="b" d="M7.087,6.425a.423.423,0,0,1-.349-.184L3.805,3.047.873,6.241a.525.525,0,0,1-.559.147A.521.521,0,0,1,0,5.874V.551A.551.551,0,0,1,.524,0a.551.551,0,0,1,.524.551v4L3.456,1.909a.545.545,0,0,1,.349-.184.423.423,0,0,1,.349.184L6.528,4.516V.551a.524.524,0,1,1,1.047,0v5.36a.625.625,0,0,1-.314.514Z" transform="translate(3.213 3.788)"/></g></svg>