<?xml version="1.0" encoding="UTF-8"?>
<svg width="22px" height="22px" viewBox="0 0 22 22" version="1.1" xmlns="http://www.w3.org/2000/svg" xmlns:xlink="http://www.w3.org/1999/xlink">
    <!-- Generator: Sketch 64 (93537) - https://sketch.com -->
    <title>ppt</title>
    <desc>Created with Sketch.</desc>
    <g id="v1.5.0.0" stroke="none" stroke-width="1" fill="none" fill-rule="evenodd">
        <g id="1.icon" transform="translate(-51.000000, -775.000000)">
            <g id="ppt" transform="translate(51.000000, 775.000000)">
                <rect id="矩形" fill="#F8883F" x="0" y="0" width="22" height="22" rx="2"></rect>
                <path d="M14.9144222,6 C16.6694552,6.1836243 18.0017556,7.66407391 18,9.42868622 C18,11.1426276 16.7143416,12.6002411 15.0004005,12.8573724 L7.71474463,12.8573724 L7.71474463,17.1426276 C7.71474463,17.6568903 7.371635,18 6.85737231,18 C6.34310963,18 6,17.6568903 6,17.1426276 L6,12 C6,11.4857372 6.34310963,11.1426276 6.85737231,11.1426276 L14.5721161,11.1426276 C15.5174179,11.1395405 16.2829701,10.3739882 16.2860572,9.42868622 C16.2860572,8.57131378 15.6858162,7.88589795 14.8292474,7.71474488 L6.85817585,7.71474488 C6.34391317,7.71474488 6.00080354,7.28646043 6.00080354,6.85737244 C6.00080354,6.34310968 6.42908793,6 6.85817585,6 L14.9152257,6 L14.9144222,6 Z" id="路径" fill="#FFFFFF" fill-rule="nonzero"></path>
            </g>
        </g>
    </g>
</svg>